<svg xmlns="http://www.w3.org/2000/svg" xmlns:xlink="http://www.w3.org/1999/xlink" width="500" zoomAndPan="magnify" viewBox="0 0 375 374.999991" height="500" preserveAspectRatio="xMidYMid meet" version="1.0"><defs><g/><clipPath id="de2c788dee"><path d="M 2 95 L 126 95 L 126 223 L 2 223 Z M 2 95 " clip-rule="nonzero"/></clipPath><clipPath id="14d780d0f4"><path d="M -9.984375 189.050781 L 71.042969 68.292969 L 150.605469 121.675781 L 69.574219 242.4375 Z M -9.984375 189.050781 " clip-rule="nonzero"/></clipPath><clipPath id="4d5fd974c3"><path d="M -9.984375 189.050781 L 71.042969 68.292969 L 150.605469 121.675781 L 69.574219 242.4375 Z M -9.984375 189.050781 " clip-rule="nonzero"/></clipPath><clipPath id="b98a97d418"><path d="M 5 97 L 122 97 L 122 218 L 5 218 Z M 5 97 " clip-rule="nonzero"/></clipPath><clipPath id="19be8e7fa9"><path d="M -9.984375 189.050781 L 71.042969 68.292969 L 150.605469 121.675781 L 69.574219 242.4375 Z M -9.984375 189.050781 " clip-rule="nonzero"/></clipPath><clipPath id="c9b7abdced"><path d="M -9.984375 189.050781 L 71.042969 68.292969 L 150.605469 121.675781 L 69.574219 242.4375 Z M -9.984375 189.050781 " clip-rule="nonzero"/></clipPath><clipPath id="1c7cbd78d1"><path d="M 16 189 L 41 189 L 41 201 L 16 201 Z M 16 189 " clip-rule="nonzero"/></clipPath><clipPath id="73cd9231b9"><path d="M -9.984375 189.050781 L 71.042969 68.292969 L 150.605469 121.675781 L 69.574219 242.4375 Z M -9.984375 189.050781 " clip-rule="nonzero"/></clipPath><clipPath id="54b6dd1e2f"><path d="M -9.984375 189.050781 L 71.042969 68.292969 L 150.605469 121.675781 L 69.574219 242.4375 Z M -9.984375 189.050781 " clip-rule="nonzero"/></clipPath><clipPath id="ecbcf3d010"><path d="M 50 125 L 74 125 L 74 152 L 50 152 Z M 50 125 " clip-rule="nonzero"/></clipPath><clipPath id="48b06f5330"><path d="M -9.984375 189.050781 L 71.042969 68.292969 L 150.605469 121.675781 L 69.574219 242.4375 Z M -9.984375 189.050781 " clip-rule="nonzero"/></clipPath><clipPath id="4b2ffadaaa"><path d="M -9.984375 189.050781 L 71.042969 68.292969 L 150.605469 121.675781 L 69.574219 242.4375 Z M -9.984375 189.050781 " clip-rule="nonzero"/></clipPath><clipPath id="20969da987"><path d="M 52 119 L 120 119 L 120 179 L 52 179 Z M 52 119 " clip-rule="nonzero"/></clipPath><clipPath id="d7b24807ff"><path d="M -9.984375 189.050781 L 71.042969 68.292969 L 150.605469 121.675781 L 69.574219 242.4375 Z M -9.984375 189.050781 " clip-rule="nonzero"/></clipPath><clipPath id="a895b56238"><path d="M -9.984375 189.050781 L 71.042969 68.292969 L 150.605469 121.675781 L 69.574219 242.4375 Z M -9.984375 189.050781 " clip-rule="nonzero"/></clipPath><clipPath id="52a136ed3a"><path d="M 34 144 L 64 144 L 64 157 L 34 157 Z M 34 144 " clip-rule="nonzero"/></clipPath><clipPath id="9d534ac262"><path d="M -9.984375 189.050781 L 71.042969 68.292969 L 150.605469 121.675781 L 69.574219 242.4375 Z M -9.984375 189.050781 " clip-rule="nonzero"/></clipPath><clipPath id="2187bdcc12"><path d="M -9.984375 189.050781 L 71.042969 68.292969 L 150.605469 121.675781 L 69.574219 242.4375 Z M -9.984375 189.050781 " clip-rule="nonzero"/></clipPath><clipPath id="77dac1574b"><path d="M 97 146 L 106 146 L 106 157 L 97 157 Z M 97 146 " clip-rule="nonzero"/></clipPath><clipPath id="3e9bdf5944"><path d="M -9.984375 189.050781 L 71.042969 68.292969 L 150.605469 121.675781 L 69.574219 242.4375 Z M -9.984375 189.050781 " clip-rule="nonzero"/></clipPath><clipPath id="25f2d59602"><path d="M -9.984375 189.050781 L 71.042969 68.292969 L 150.605469 121.675781 L 69.574219 242.4375 Z M -9.984375 189.050781 " clip-rule="nonzero"/></clipPath><clipPath id="6edfd56ccb"><path d="M 67 127 L 108 127 L 108 163 L 67 163 Z M 67 127 " clip-rule="nonzero"/></clipPath><clipPath id="5db67ccab2"><path d="M -9.984375 189.050781 L 71.042969 68.292969 L 150.605469 121.675781 L 69.574219 242.4375 Z M -9.984375 189.050781 " clip-rule="nonzero"/></clipPath><clipPath id="5c37fb9ed6"><path d="M -9.984375 189.050781 L 71.042969 68.292969 L 150.605469 121.675781 L 69.574219 242.4375 Z M -9.984375 189.050781 " clip-rule="nonzero"/></clipPath><clipPath id="3ad2302cbe"><path d="M 51 159 L 80 159 L 80 180 L 51 180 Z M 51 159 " clip-rule="nonzero"/></clipPath><clipPath id="59ced5a386"><path d="M -9.984375 189.050781 L 71.042969 68.292969 L 150.605469 121.675781 L 69.574219 242.4375 Z M -9.984375 189.050781 " clip-rule="nonzero"/></clipPath><clipPath id="5778361c31"><path d="M -9.984375 189.050781 L 71.042969 68.292969 L 150.605469 121.675781 L 69.574219 242.4375 Z M -9.984375 189.050781 " clip-rule="nonzero"/></clipPath><clipPath id="ec200103f8"><path d="M 30 191 L 43 191 L 43 199 L 30 199 Z M 30 191 " clip-rule="nonzero"/></clipPath><clipPath id="395b100180"><path d="M -9.984375 189.050781 L 71.042969 68.292969 L 150.605469 121.675781 L 69.574219 242.4375 Z M -9.984375 189.050781 " clip-rule="nonzero"/></clipPath><clipPath id="c2cb21e10d"><path d="M -9.984375 189.050781 L 71.042969 68.292969 L 150.605469 121.675781 L 69.574219 242.4375 Z M -9.984375 189.050781 " clip-rule="nonzero"/></clipPath></defs><g fill="#1b2123" fill-opacity="1"><g transform="translate(49.034892, 248.105004)"><g><path d="M 50.203125 1.34375 C 41.285156 1.34375 33.3125 -0.4375 26.28125 -4 C 19.257812 -7.570312 13.789062 -12.523438 9.875 -18.859375 C 5.96875 -25.191406 4.015625 -32.367188 4.015625 -40.390625 C 4.015625 -48.410156 5.96875 -55.5625 9.875 -61.84375 C 13.789062 -68.132812 19.257812 -73.035156 26.28125 -76.546875 C 33.3125 -80.066406 41.285156 -81.828125 50.203125 -81.828125 C 59.304688 -81.828125 67.175781 -79.867188 73.8125 -75.953125 C 80.445312 -72.046875 85.148438 -66.628906 87.921875 -59.703125 L 66.09375 -48.5625 C 62.425781 -55.789062 57.078125 -59.40625 50.046875 -59.40625 C 44.992188 -59.40625 40.8125 -57.722656 37.5 -54.359375 C 34.1875 -50.992188 32.53125 -46.335938 32.53125 -40.390625 C 32.53125 -34.359375 34.1875 -29.632812 37.5 -26.21875 C 40.8125 -22.800781 44.992188 -21.09375 50.046875 -21.09375 C 57.078125 -21.09375 62.425781 -24.707031 66.09375 -31.9375 L 87.921875 -20.796875 C 85.148438 -13.859375 80.445312 -8.429688 73.8125 -4.515625 C 67.175781 -0.609375 59.304688 1.34375 50.203125 1.34375 Z M 50.203125 1.34375 "/></g></g></g><g fill="#1b2123" fill-opacity="1"><g transform="translate(127.292392, 248.105004)"><g><path d="M 61.484375 -81.828125 C 71.484375 -81.828125 79.523438 -78.859375 85.609375 -72.921875 C 91.703125 -66.984375 94.75 -58.023438 94.75 -46.046875 L 94.75 0 L 66.53125 0 L 66.53125 -41.4375 C 66.53125 -52.425781 62.125 -57.921875 53.3125 -57.921875 C 48.46875 -57.921875 44.582031 -56.335938 41.65625 -53.171875 C 38.738281 -50.003906 37.28125 -45.25 37.28125 -38.90625 L 37.28125 0 L 9.0625 0 L 9.0625 -110.203125 L 37.28125 -110.203125 L 37.28125 -73.0625 C 40.34375 -75.9375 43.953125 -78.113281 48.109375 -79.59375 C 52.273438 -81.082031 56.734375 -81.828125 61.484375 -81.828125 Z M 61.484375 -81.828125 "/></g></g></g><g fill="#1b2123" fill-opacity="1"><g transform="translate(219.360433, 248.105004)"><g><path d="M 91.34375 -40.09375 C 91.34375 -39.894531 91.191406 -37.570312 90.890625 -33.125 L 32.375 -33.125 C 33.5625 -28.957031 35.863281 -25.757812 39.28125 -23.53125 C 42.695312 -21.3125 46.976562 -20.203125 52.125 -20.203125 C 55.988281 -20.203125 59.332031 -20.742188 62.15625 -21.828125 C 64.976562 -22.921875 67.820312 -24.703125 70.6875 -27.171875 L 85.546875 -11.734375 C 77.722656 -3.015625 66.285156 1.34375 51.234375 1.34375 C 41.828125 1.34375 33.5625 -0.4375 26.4375 -4 C 19.3125 -7.570312 13.789062 -12.523438 9.875 -18.859375 C 5.96875 -25.191406 4.015625 -32.367188 4.015625 -40.390625 C 4.015625 -48.316406 5.921875 -55.421875 9.734375 -61.703125 C 13.546875 -67.992188 18.816406 -72.921875 25.546875 -76.484375 C 32.273438 -80.046875 39.847656 -81.828125 48.265625 -81.828125 C 56.285156 -81.828125 63.5625 -80.164062 70.09375 -76.84375 C 76.632812 -73.53125 81.8125 -68.726562 85.625 -62.4375 C 89.4375 -56.15625 91.34375 -48.707031 91.34375 -40.09375 Z M 48.421875 -61.78125 C 44.054688 -61.78125 40.414062 -60.539062 37.5 -58.0625 C 34.582031 -55.59375 32.726562 -52.226562 31.9375 -47.96875 L 64.90625 -47.96875 C 64.113281 -52.226562 62.253906 -55.59375 59.328125 -58.0625 C 56.410156 -60.539062 52.773438 -61.78125 48.421875 -61.78125 Z M 48.421875 -61.78125 "/></g></g></g><g fill="#1b2123" fill-opacity="1"><g transform="translate(303.409449, 248.105004)"><g><path d="M 39.796875 -77.53125 L 58.953125 -77.53125 L 58.953125 -56.4375 L 40.546875 -56.4375 L 40.546875 0 L 12.328125 0 L 12.328125 -56.4375 L 0.59375 -56.4375 L 0.59375 -77.53125 L 12.328125 -77.53125 L 12.328125 -79.609375 C 12.328125 -89.410156 15.269531 -97.179688 21.15625 -102.921875 C 27.050781 -108.660156 35.296875 -111.53125 45.890625 -111.53125 C 49.453125 -111.53125 52.914062 -111.179688 56.28125 -110.484375 C 59.65625 -109.796875 62.429688 -108.757812 64.609375 -107.375 L 57.625 -87.46875 C 54.851562 -89.0625 52.03125 -89.859375 49.15625 -89.859375 C 46.1875 -89.859375 43.882812 -88.960938 42.25 -87.171875 C 40.613281 -85.390625 39.796875 -82.769531 39.796875 -79.3125 Z M 39.796875 -77.53125 "/></g></g></g><g clip-path="url(#de2c788dee)"><g clip-path="url(#14d780d0f4)"><g clip-path="url(#4d5fd974c3)"><path fill="#1b2123" d="M 115.65625 171.597656 C 100.292969 177.949219 84.496094 188.113281 71.175781 200.214844 C 64.546875 206.238281 58.691406 212.582031 53.773438 219.070312 L 51.265625 222.382812 L 40.8125 198.96875 C 36.183594 202.070312 26.027344 207.472656 15.195312 204.074219 C 9.945312 202.425781 6.453125 199.769531 4.515625 195.945312 C 1.972656 190.929688 -1.4375 176.402344 12.355469 164.914062 C 22.441406 155.753906 38.421875 153.625 41.746094 153.273438 C 42.835938 152.59375 43.824219 151.847656 44.753906 151.003906 C 48.480469 147.613281 50.703125 143.058594 53.277344 137.78125 C 56.953125 130.25 61.527344 120.875 72.390625 111.003906 C 73.726562 109.789062 75.152344 108.578125 76.621094 107.402344 C 89.46875 97.101562 99.738281 93.386719 108.011719 96.035156 C 111.679688 97.207031 121.199219 103.671875 124.597656 115.917969 C 126.546875 122.398438 124.476562 129.273438 120.792969 136.171875 C 119.054688 139.421875 115.703125 144.464844 109.601562 150.011719 C 107.929688 151.527344 106.425781 152.746094 105.285156 153.621094 L 118.660156 170.351562 Z M 115.65625 171.597656 " fill-opacity="1" fill-rule="nonzero"/></g></g></g><g clip-path="url(#b98a97d418)"><g clip-path="url(#19be8e7fa9)"><g clip-path="url(#c9b7abdced)"><path fill="#ffffff" d="M 121.042969 116.695312 C 123.164062 123.738281 121.289062 130.410156 118.007812 136.070312 C 112.132812 146.214844 101.746094 153.121094 101.746094 153.121094 L 114.6875 169.308594 C 108.742188 171.765625 102.75 174.773438 96.859375 178.238281 C 79.6875 188.328125 63.394531 202.261719 51.800781 217.558594 L 41.796875 195.148438 C 41.796875 195.148438 29.199219 205.886719 15.90625 201.714844 C 7.457031 199.066406 2.511719 190.210938 6.789062 176.609375 C 13.09375 158.574219 42.574219 155.683594 42.574219 155.683594 C 57.261719 146.972656 53.347656 129.242188 78.179688 109.339844 C 102.929688 89.503906 115.128906 97.035156 121.042969 116.695312 Z M 121.042969 116.695312 " fill-opacity="1" fill-rule="nonzero"/></g></g></g><g clip-path="url(#1c7cbd78d1)"><g clip-path="url(#73cd9231b9)"><g clip-path="url(#54b6dd1e2f)"><path fill="#ffffff" d="M 40.269531 195.546875 C 40.269531 195.546875 30.226562 200.570312 24.292969 199.949219 C 18.21875 199.316406 15.832031 196.546875 17.007812 196.445312 C 18.179688 196.339844 23.953125 198.164062 26.570312 195.464844 C 29.1875 192.765625 22.414062 190.890625 25.628906 189.894531 C 28.84375 188.902344 33.484375 189.824219 36.433594 191.324219 C 39.378906 192.824219 40.269531 195.546875 40.269531 195.546875 Z M 40.269531 195.546875 " fill-opacity="1" fill-rule="nonzero"/></g></g></g><g clip-path="url(#ecbcf3d010)"><g clip-path="url(#48b06f5330)"><g clip-path="url(#4b2ffadaaa)"><path fill="#ffffff" d="M 50.941406 151.203125 C 50.941406 151.203125 57.40625 146.722656 61.78125 138.042969 C 66.160156 129.363281 70.222656 123.992188 72.0625 126.015625 C 73.902344 128.039062 74.035156 133.296875 67.25 141.140625 C 60.460938 148.988281 50.941406 151.203125 50.941406 151.203125 Z M 50.941406 151.203125 " fill-opacity="1" fill-rule="nonzero"/></g></g></g><g clip-path="url(#20969da987)"><g clip-path="url(#d7b24807ff)"><g clip-path="url(#a895b56238)"><path fill="#ffffff" d="M 119.28125 127.382812 C 119.257812 127.578125 118.570312 132.726562 118.007812 136.070312 C 112.132812 146.214844 101.746094 153.121094 101.746094 153.121094 L 114.6875 169.308594 C 108.742188 171.769531 102.75 174.777344 96.859375 178.238281 C 97.8125 176.269531 98.066406 173.777344 96.648438 170.738281 C 92.445312 161.71875 87.902344 157.699219 87.902344 157.699219 C 87.902344 157.699219 82.703125 169.664062 75.441406 174.449219 C 68.238281 179.195312 52.496094 177.445312 52.25 177.417969 C 52.386719 177.339844 59.742188 173.316406 63.15625 169.769531 C 66.597656 166.1875 66.597656 166.1875 66.597656 166.1875 C 60.964844 164.015625 55.753906 161.796875 58.898438 158.699219 C 58.898438 158.699219 76.695312 161.089844 90.847656 143.253906 C 105 125.417969 99.894531 117.832031 106.660156 119.382812 C 113.425781 120.929688 109.6875 137.453125 113.542969 135.3125 C 117.328125 133.203125 119.214844 127.582031 119.28125 127.382812 Z M 119.28125 127.382812 " fill-opacity="1" fill-rule="nonzero"/></g></g></g><g clip-path="url(#52a136ed3a)"><g clip-path="url(#9d534ac262)"><g clip-path="url(#2187bdcc12)"><path fill="#1b2123" d="M 34.140625 156.925781 C 34.140625 156.925781 44.035156 156.558594 51.796875 153.640625 C 59.558594 150.722656 63.167969 144.230469 63.167969 144.230469 C 63.167969 144.230469 56.28125 149.109375 50.941406 151.207031 C 45.601562 153.300781 44.402344 153.472656 44.402344 153.472656 Z M 34.140625 156.925781 " fill-opacity="1" fill-rule="nonzero"/></g></g></g><g clip-path="url(#77dac1574b)"><g clip-path="url(#3e9bdf5944)"><g clip-path="url(#25f2d59602)"><path fill="#1b2123" d="M 97.691406 146.109375 C 97.890625 147.707031 101.730469 152.992188 104.761719 156.871094 L 105.285156 153.621094 C 103.007812 150.90625 101.121094 148.449219 99.566406 146.214844 Z M 97.691406 146.109375 " fill-opacity="1" fill-rule="nonzero"/></g></g></g><g clip-path="url(#6edfd56ccb)"><g clip-path="url(#5db67ccab2)"><g clip-path="url(#5c37fb9ed6)"><path fill="#1b2123" d="M 107.472656 127.445312 C 107.472656 127.445312 107.851562 137.707031 93.667969 149.085938 C 79.480469 160.464844 67.4375 162.3125 67.4375 162.3125 C 67.4375 162.3125 79.960938 162.730469 93.679688 153.164062 C 102.164062 146.960938 99.914062 148.589844 104.066406 142.933594 C 108.21875 137.277344 107.472656 127.445312 107.472656 127.445312 Z M 107.472656 127.445312 " fill-opacity="1" fill-rule="nonzero"/></g></g></g><g clip-path="url(#3ad2302cbe)"><g clip-path="url(#59ced5a386)"><g clip-path="url(#5778361c31)"><path fill="#1b2123" d="M 75.007812 160.78125 C 72.101562 169.011719 62.144531 177.414062 51.417969 179.574219 C 51.417969 179.574219 55.640625 180.976562 64.984375 176.230469 C 74.324219 171.484375 79.695312 159.121094 79.695312 159.121094 Z M 75.007812 160.78125 " fill-opacity="1" fill-rule="nonzero"/></g></g></g><g clip-path="url(#ec200103f8)"><g clip-path="url(#395b100180)"><g clip-path="url(#c2cb21e10d)"><path fill="#1b2123" d="M 42.839844 198.171875 C 42.726562 197.449219 42.246094 195.125 40.738281 193.464844 C 39.230469 191.804688 30.65625 191.046875 30.65625 191.046875 C 30.65625 191.046875 36.308594 193.078125 38.117188 194.46875 C 39.925781 195.859375 40.8125 198.96875 40.8125 198.96875 Z M 42.839844 198.171875 " fill-opacity="1" fill-rule="nonzero"/></g></g></g></svg>