<svg xmlns="http://www.w3.org/2000/svg" xmlns:xlink="http://www.w3.org/1999/xlink" width="1920" zoomAndPan="magnify" viewBox="0 0 1440 809.999993" height="1080" preserveAspectRatio="xMidYMid meet" version="1.0"><defs><g/><clipPath id="ba46ddd524"><path d="M 13 107 L 486 107 L 486 596 L 13 596 Z M 13 107 " clip-rule="nonzero"/></clipPath><clipPath id="3c8ff453f5"><path d="M -33.457031 467.855469 L 278.953125 2.261719 L 585.695312 208.082031 L 273.289062 673.679688 Z M -33.457031 467.855469 " clip-rule="nonzero"/></clipPath><clipPath id="869322f1e9"><path d="M -33.457031 467.855469 L 278.953125 2.261719 L 585.695312 208.082031 L 273.289062 673.679688 Z M -33.457031 467.855469 " clip-rule="nonzero"/></clipPath><clipPath id="7cbe549a7c"><path d="M 24 117 L 473 117 L 473 577 L 24 577 Z M 24 117 " clip-rule="nonzero"/></clipPath><clipPath id="6410caeddb"><path d="M -33.457031 467.855469 L 278.953125 2.261719 L 585.695312 208.082031 L 273.289062 673.679688 Z M -33.457031 467.855469 " clip-rule="nonzero"/></clipPath><clipPath id="fc32e6cf1a"><path d="M -33.457031 467.855469 L 278.953125 2.261719 L 585.695312 208.082031 L 273.289062 673.679688 Z M -33.457031 467.855469 " clip-rule="nonzero"/></clipPath><clipPath id="47f47de457"><path d="M 68 469 L 160 469 L 160 510 L 68 510 Z M 68 469 " clip-rule="nonzero"/></clipPath><clipPath id="231344ff1a"><path d="M -33.457031 467.855469 L 278.953125 2.261719 L 585.695312 208.082031 L 273.289062 673.679688 Z M -33.457031 467.855469 " clip-rule="nonzero"/></clipPath><clipPath id="87e460f544"><path d="M -33.457031 467.855469 L 278.953125 2.261719 L 585.695312 208.082031 L 273.289062 673.679688 Z M -33.457031 467.855469 " clip-rule="nonzero"/></clipPath><clipPath id="998f96e464"><path d="M 200 224 L 286 224 L 286 323 L 200 323 Z M 200 224 " clip-rule="nonzero"/></clipPath><clipPath id="e0988a5662"><path d="M -33.457031 467.855469 L 278.953125 2.261719 L 585.695312 208.082031 L 273.289062 673.679688 Z M -33.457031 467.855469 " clip-rule="nonzero"/></clipPath><clipPath id="d97f382ece"><path d="M -33.457031 467.855469 L 278.953125 2.261719 L 585.695312 208.082031 L 273.289062 673.679688 Z M -33.457031 467.855469 " clip-rule="nonzero"/></clipPath><clipPath id="ec535451dd"><path d="M 205 199 L 463 199 L 463 427 L 205 427 Z M 205 199 " clip-rule="nonzero"/></clipPath><clipPath id="ba63ef2ff3"><path d="M -33.457031 467.855469 L 278.953125 2.261719 L 585.695312 208.082031 L 273.289062 673.679688 Z M -33.457031 467.855469 " clip-rule="nonzero"/></clipPath><clipPath id="fca31806c2"><path d="M -33.457031 467.855469 L 278.953125 2.261719 L 585.695312 208.082031 L 273.289062 673.679688 Z M -33.457031 467.855469 " clip-rule="nonzero"/></clipPath><clipPath id="b2878144d1"><path d="M 135 295 L 248 295 L 248 345 L 135 345 Z M 135 295 " clip-rule="nonzero"/></clipPath><clipPath id="e565663772"><path d="M -33.457031 467.855469 L 278.953125 2.261719 L 585.695312 208.082031 L 273.289062 673.679688 Z M -33.457031 467.855469 " clip-rule="nonzero"/></clipPath><clipPath id="1427b4c07c"><path d="M -33.457031 467.855469 L 278.953125 2.261719 L 585.695312 208.082031 L 273.289062 673.679688 Z M -33.457031 467.855469 " clip-rule="nonzero"/></clipPath><clipPath id="fc1c8681b0"><path d="M 379 302 L 409 302 L 409 345 L 379 345 Z M 379 302 " clip-rule="nonzero"/></clipPath><clipPath id="4f55bda243"><path d="M -33.457031 467.855469 L 278.953125 2.261719 L 585.695312 208.082031 L 273.289062 673.679688 Z M -33.457031 467.855469 " clip-rule="nonzero"/></clipPath><clipPath id="7ee0e9ef55"><path d="M -33.457031 467.855469 L 278.953125 2.261719 L 585.695312 208.082031 L 273.289062 673.679688 Z M -33.457031 467.855469 " clip-rule="nonzero"/></clipPath><clipPath id="7c20effd93"><path d="M 263 231 L 418 231 L 418 366 L 263 366 Z M 263 231 " clip-rule="nonzero"/></clipPath><clipPath id="1e8e07a45f"><path d="M -33.457031 467.855469 L 278.953125 2.261719 L 585.695312 208.082031 L 273.289062 673.679688 Z M -33.457031 467.855469 " clip-rule="nonzero"/></clipPath><clipPath id="fa872be894"><path d="M -33.457031 467.855469 L 278.953125 2.261719 L 585.695312 208.082031 L 273.289062 673.679688 Z M -33.457031 467.855469 " clip-rule="nonzero"/></clipPath><clipPath id="444da157ca"><path d="M 201 352 L 311 352 L 311 433 L 201 433 Z M 201 352 " clip-rule="nonzero"/></clipPath><clipPath id="9ea342cbec"><path d="M -33.457031 467.855469 L 278.953125 2.261719 L 585.695312 208.082031 L 273.289062 673.679688 Z M -33.457031 467.855469 " clip-rule="nonzero"/></clipPath><clipPath id="bdc72f8d8f"><path d="M -33.457031 467.855469 L 278.953125 2.261719 L 585.695312 208.082031 L 273.289062 673.679688 Z M -33.457031 467.855469 " clip-rule="nonzero"/></clipPath><clipPath id="898d56ce87"><path d="M 122 475 L 169 475 L 169 506 L 122 506 Z M 122 475 " clip-rule="nonzero"/></clipPath><clipPath id="7d80512a7b"><path d="M -33.457031 467.855469 L 278.953125 2.261719 L 585.695312 208.082031 L 273.289062 673.679688 Z M -33.457031 467.855469 " clip-rule="nonzero"/></clipPath><clipPath id="13c4dbb931"><path d="M -33.457031 467.855469 L 278.953125 2.261719 L 585.695312 208.082031 L 273.289062 673.679688 Z M -33.457031 467.855469 " clip-rule="nonzero"/></clipPath></defs><g fill="#1b2123" fill-opacity="1"><g transform="translate(194.092939, 695.533861)"><g><path d="M 193.546875 5.15625 C 159.191406 5.15625 128.460938 -1.710938 101.359375 -15.453125 C 74.253906 -29.203125 53.160156 -48.289062 38.078125 -72.71875 C 23.003906 -97.15625 15.46875 -124.835938 15.46875 -155.765625 C 15.46875 -186.679688 23.003906 -214.257812 38.078125 -238.5 C 53.160156 -262.75 74.253906 -281.648438 101.359375 -295.203125 C 128.460938 -308.753906 159.191406 -315.53125 193.546875 -315.53125 C 228.671875 -315.53125 259.019531 -307.988281 284.59375 -292.90625 C 310.175781 -277.820312 328.3125 -256.921875 339 -230.203125 L 254.828125 -187.25 C 240.703125 -215.125 220.085938 -229.0625 192.984375 -229.0625 C 173.515625 -229.0625 157.382812 -222.566406 144.59375 -209.578125 C 131.800781 -196.597656 125.40625 -178.660156 125.40625 -155.765625 C 125.40625 -132.472656 131.800781 -114.238281 144.59375 -101.0625 C 157.382812 -87.894531 173.515625 -81.3125 192.984375 -81.3125 C 220.085938 -81.3125 240.703125 -95.25 254.828125 -123.125 L 339 -80.171875 C 328.3125 -53.441406 310.175781 -32.535156 284.59375 -17.453125 C 259.019531 -2.378906 228.671875 5.15625 193.546875 5.15625 Z M 193.546875 5.15625 "/></g></g></g><g fill="#1b2123" fill-opacity="1"><g transform="translate(495.816739, 695.533861)"><g><path d="M 237.078125 -315.53125 C 275.628906 -315.53125 306.644531 -304.078125 330.125 -281.171875 C 353.601562 -258.265625 365.34375 -223.710938 365.34375 -177.515625 L 365.34375 0 L 256.546875 0 L 256.546875 -159.765625 C 256.546875 -202.140625 239.554688 -223.328125 205.578125 -223.328125 C 186.867188 -223.328125 171.882812 -217.21875 160.625 -205 C 149.363281 -192.789062 143.734375 -174.46875 143.734375 -150.03125 L 143.734375 0 L 34.9375 0 L 34.9375 -424.90625 L 143.734375 -424.90625 L 143.734375 -281.734375 C 155.566406 -292.804688 169.5 -301.207031 185.53125 -306.9375 C 201.570312 -312.664062 218.753906 -315.53125 237.078125 -315.53125 Z M 237.078125 -315.53125 "/></g></g></g><g fill="#1b2123" fill-opacity="1"><g transform="translate(850.787434, 695.533861)"><g><path d="M 352.171875 -154.609375 C 352.171875 -153.847656 351.597656 -144.878906 350.453125 -127.703125 L 124.828125 -127.703125 C 129.410156 -111.660156 138.285156 -99.34375 151.453125 -90.75 C 164.628906 -82.164062 181.144531 -77.875 201 -77.875 C 215.882812 -77.875 228.765625 -79.972656 239.640625 -84.171875 C 250.523438 -88.378906 261.503906 -95.253906 272.578125 -104.796875 L 329.84375 -45.234375 C 299.6875 -11.640625 255.59375 5.15625 197.5625 5.15625 C 161.289062 5.15625 129.410156 -1.710938 101.921875 -15.453125 C 74.441406 -29.203125 53.160156 -48.289062 38.078125 -72.71875 C 23.003906 -97.15625 15.46875 -124.835938 15.46875 -155.765625 C 15.46875 -186.296875 22.8125 -213.679688 37.5 -237.921875 C 52.195312 -262.171875 72.523438 -281.164062 98.484375 -294.90625 C 124.453125 -308.65625 153.660156 -315.53125 186.109375 -315.53125 C 217.023438 -315.53125 245.082031 -309.132812 270.28125 -296.34375 C 295.476562 -283.550781 315.425781 -265.035156 330.125 -240.796875 C 344.820312 -216.554688 352.171875 -187.828125 352.171875 -154.609375 Z M 186.6875 -238.21875 C 169.882812 -238.21875 155.851562 -233.445312 144.59375 -223.90625 C 133.332031 -214.363281 126.175781 -201.382812 123.125 -184.96875 L 250.25 -184.96875 C 247.1875 -201.382812 240.023438 -214.363281 228.765625 -223.90625 C 217.503906 -233.445312 203.476562 -238.21875 186.6875 -238.21875 Z M 186.6875 -238.21875 "/></g></g></g><g fill="#1b2123" fill-opacity="1"><g transform="translate(1174.840572, 695.533861)"><g><path d="M 153.46875 -298.921875 L 227.34375 -298.921875 L 227.34375 -217.609375 L 156.328125 -217.609375 L 156.328125 0 L 47.53125 0 L 47.53125 -217.609375 L 2.296875 -217.609375 L 2.296875 -298.921875 L 47.53125 -298.921875 L 47.53125 -306.9375 C 47.53125 -344.726562 58.882812 -374.691406 81.59375 -396.828125 C 104.3125 -418.972656 136.097656 -430.046875 176.953125 -430.046875 C 190.691406 -430.046875 204.050781 -428.707031 217.03125 -426.03125 C 230.007812 -423.363281 240.695312 -419.359375 249.09375 -414.015625 L 222.1875 -337.28125 C 211.5 -343.394531 200.617188 -346.453125 189.546875 -346.453125 C 178.085938 -346.453125 169.207031 -343.015625 162.90625 -336.140625 C 156.613281 -329.265625 153.46875 -319.148438 153.46875 -305.796875 Z M 153.46875 -298.921875 "/></g></g></g><g clip-path="url(#ba46ddd524)"><g clip-path="url(#3c8ff453f5)"><g clip-path="url(#869322f1e9)"><path fill="#1b2123" d="M 448.070312 400.484375 C 389.183594 424.898438 328.613281 463.929688 277.519531 510.390625 C 252.097656 533.507812 229.640625 557.851562 210.773438 582.757812 L 201.140625 595.464844 L 161.164062 505.710938 C 143.425781 517.628906 104.480469 538.371094 62.988281 525.378906 C 42.871094 519.078125 29.492188 508.894531 22.078125 494.238281 C 12.359375 475.019531 -0.660156 419.3125 52.238281 375.210938 C 90.910156 340.046875 152.164062 331.835938 164.90625 330.476562 C 169.082031 327.863281 172.867188 325 176.433594 321.753906 C 190.734375 308.75 199.269531 291.265625 209.148438 271.027344 C 223.261719 242.125 240.816406 206.160156 282.480469 168.273438 C 287.609375 163.609375 293.066406 158.953125 298.699219 154.433594 C 347.96875 114.902344 387.335938 100.609375 419.039062 110.738281 C 433.09375 115.226562 469.550781 139.980469 482.527344 186.929688 C 489.976562 211.777344 482.019531 238.160156 467.878906 264.613281 C 461.210938 277.097656 448.34375 296.449219 424.9375 317.730469 C 418.53125 323.554688 412.761719 328.234375 408.398438 331.582031 L 459.59375 395.703125 Z M 448.070312 400.484375 " fill-opacity="1" fill-rule="nonzero"/></g></g></g><g clip-path="url(#7cbe549a7c)"><g clip-path="url(#6410caeddb)"><g clip-path="url(#fc32e6cf1a)"><path fill="#ffffff" d="M 468.902344 189.933594 C 477 216.929688 469.796875 242.515625 457.214844 264.238281 C 434.664062 303.167969 394.839844 329.6875 394.839844 329.6875 L 444.367188 391.71875 C 421.582031 401.164062 398.605469 412.722656 376.019531 426.019531 C 310.175781 464.777344 247.699219 518.257812 203.214844 576.96875 L 164.957031 491.066406 C 164.957031 491.066406 116.640625 532.28125 65.710938 516.332031 C 33.34375 506.199219 14.421875 472.25 30.871094 420.085938 C 55.085938 350.898438 168.066406 339.707031 168.066406 339.707031 C 224.375 306.257812 209.445312 238.265625 304.671875 161.863281 C 399.574219 85.710938 446.300781 114.550781 468.902344 189.933594 Z M 468.902344 189.933594 " fill-opacity="1" fill-rule="nonzero"/></g></g></g><g clip-path="url(#47f47de457)"><g clip-path="url(#231344ff1a)"><g clip-path="url(#87e460f544)"><path fill="#ffffff" d="M 159.101562 492.59375 C 159.101562 492.59375 120.59375 511.882812 97.867188 509.53125 C 74.585938 507.117188 65.457031 496.507812 69.953125 496.113281 C 74.453125 495.714844 96.570312 502.679688 106.609375 492.324219 C 116.644531 481.964844 90.695312 474.792969 103.019531 470.96875 C 115.34375 467.148438 133.125 470.671875 144.410156 476.414062 C 155.695312 482.152344 159.101562 492.59375 159.101562 492.59375 Z M 159.101562 492.59375 " fill-opacity="1" fill-rule="nonzero"/></g></g></g><g clip-path="url(#998f96e464)"><g clip-path="url(#e0988a5662)"><g clip-path="url(#d97f382ece)"><path fill="#ffffff" d="M 200.148438 322.503906 C 200.148438 322.503906 224.941406 305.300781 241.738281 272 C 258.535156 238.699219 274.128906 218.078125 281.175781 225.839844 C 288.21875 233.597656 288.710938 253.746094 262.671875 283.863281 C 236.632812 313.980469 200.148438 322.503906 200.148438 322.503906 Z M 200.148438 322.503906 " fill-opacity="1" fill-rule="nonzero"/></g></g></g><g clip-path="url(#ec535451dd)"><g clip-path="url(#ba63ef2ff3)"><g clip-path="url(#fca31806c2)"><path fill="#ffffff" d="M 462.117188 230.921875 C 462.019531 231.664062 459.378906 251.421875 457.210938 264.242188 C 434.660156 303.171875 394.835938 329.691406 394.835938 329.691406 L 444.367188 391.722656 C 421.582031 401.167969 398.601562 412.726562 376.019531 426.023438 C 379.6875 418.464844 380.65625 408.90625 375.242188 397.269531 C 359.164062 362.679688 341.769531 347.285156 341.769531 347.285156 C 341.769531 347.285156 321.800781 393.1875 293.960938 411.5625 C 266.34375 429.796875 206.011719 423.132812 205.070312 423.027344 C 205.589844 422.734375 233.804688 407.277344 246.890625 393.660156 C 260.097656 379.917969 260.097656 379.917969 260.097656 379.917969 C 238.511719 371.597656 218.550781 363.109375 230.621094 351.214844 C 230.621094 351.214844 298.8125 360.324219 353.101562 291.878906 C 407.390625 223.429688 387.855469 194.367188 413.773438 200.28125 C 439.695312 206.199219 425.308594 269.578125 440.09375 261.34375 C 454.613281 253.246094 461.867188 231.679688 462.117188 230.921875 Z M 462.117188 230.921875 " fill-opacity="1" fill-rule="nonzero"/></g></g></g><g clip-path="url(#b2878144d1)"><g clip-path="url(#e565663772)"><g clip-path="url(#1427b4c07c)"><path fill="#1b2123" d="M 135.742188 344.496094 C 135.742188 344.496094 173.667969 343.066406 203.417969 331.84375 C 233.167969 320.625 247.019531 295.71875 247.019531 295.71875 C 247.019531 295.71875 220.613281 314.449219 200.148438 322.507812 C 179.683594 330.5625 175.078125 331.234375 175.078125 331.234375 Z M 135.742188 344.496094 " fill-opacity="1" fill-rule="nonzero"/></g></g></g><g clip-path="url(#fc1c8681b0)"><g clip-path="url(#4f55bda243)"><g clip-path="url(#7ee0e9ef55)"><path fill="#1b2123" d="M 379.320312 302.816406 C 380.070312 308.925781 394.773438 329.1875 406.378906 344.050781 L 408.398438 331.589844 C 399.675781 321.179688 392.460938 311.773438 386.507812 303.203125 Z M 379.320312 302.816406 " fill-opacity="1" fill-rule="nonzero"/></g></g></g><g clip-path="url(#7c20effd93)"><g clip-path="url(#1e8e07a45f)"><g clip-path="url(#fa872be894)"><path fill="#1b2123" d="M 416.859375 231.199219 C 416.859375 231.199219 418.28125 270.542969 363.882812 314.234375 C 309.488281 357.921875 263.320312 365.042969 263.320312 365.042969 C 263.320312 365.042969 311.3125 366.605469 363.917969 329.867188 C 396.457031 306.058594 387.828125 312.3125 403.757812 290.609375 C 419.6875 268.910156 416.859375 231.199219 416.859375 231.199219 Z M 416.859375 231.199219 " fill-opacity="1" fill-rule="nonzero"/></g></g></g><g clip-path="url(#444da157ca)"><g clip-path="url(#9ea342cbec)"><g clip-path="url(#bdc72f8d8f)"><path fill="#1b2123" d="M 292.347656 359.144531 C 281.171875 390.71875 242.984375 422.972656 201.871094 431.304688 C 201.871094 431.304688 218.054688 436.660156 253.871094 418.425781 C 289.6875 400.195312 310.316406 352.761719 310.316406 352.761719 Z M 292.347656 359.144531 " fill-opacity="1" fill-rule="nonzero"/></g></g></g><g clip-path="url(#898d56ce87)"><g clip-path="url(#7d80512a7b)"><g clip-path="url(#13c4dbb931)"><path fill="#1b2123" d="M 168.945312 502.652344 C 168.507812 499.878906 166.683594 490.972656 160.90625 484.605469 C 155.128906 478.242188 122.273438 475.363281 122.273438 475.363281 C 122.273438 475.363281 143.929688 483.140625 150.855469 488.464844 C 157.777344 493.792969 161.167969 505.710938 161.167969 505.710938 Z M 168.945312 502.652344 " fill-opacity="1" fill-rule="nonzero"/></g></g></g></svg>